<?xml version="1.0" encoding="UTF-8" standalone="no"?>
<!-- Created with Inkscape (http://www.inkscape.org/) -->

<svg
   xmlns:dc="http://purl.org/dc/elements/1.1/"
   xmlns:cc="http://creativecommons.org/ns#"
   xmlns:rdf="http://www.w3.org/1999/02/22-rdf-syntax-ns#"
   xmlns:svg="http://www.w3.org/2000/svg"
   xmlns="http://www.w3.org/2000/svg"
   xmlns:xlink="http://www.w3.org/1999/xlink"
   xmlns:sodipodi="http://sodipodi.sourceforge.net/DTD/sodipodi-0.dtd"
   xmlns:inkscape="http://www.inkscape.org/namespaces/inkscape"
   width="210mm"
   height="297mm"
   viewBox="0 0 210 297"
   version="1.1"
   id="svg8"
   inkscape:version="0.92.3 (2405546, 2018-03-11)"
   sodipodi:docname="gawel_logo1.svg">
  <defs
     id="defs2" />
  <sodipodi:namedview
     id="base"
     pagecolor="#ffffff"
     bordercolor="#666666"
     borderopacity="1.0"
     inkscape:pageopacity="0.0"
     inkscape:pageshadow="2"
     inkscape:zoom="0.45254834"
     inkscape:cx="-274.56781"
     inkscape:cy="414.32563"
     inkscape:document-units="mm"
     inkscape:current-layer="layer1"
     showgrid="false"
     inkscape:window-width="1853"
     inkscape:window-height="1021"
     inkscape:window-x="67"
     inkscape:window-y="27"
     inkscape:window-maximized="1"
     inkscape:measure-start="0,0"
     inkscape:measure-end="0,0" />
  <metadata
     id="metadata5">
    <rdf:RDF>
      <cc:Work
         rdf:about="">
        <dc:format>image/svg+xml</dc:format>
        <dc:type
           rdf:resource="http://purl.org/dc/dcmitype/StillImage" />
        <dc:title></dc:title>
      </cc:Work>
    </rdf:RDF>
  </metadata>
  <g
     inkscape:label="Layer 1"
     inkscape:groupmode="layer"
     id="layer1">
    <path
       style="fill:#0000ff;stroke-width:0.26458332"
       d="M 104.45713,78.459042 A 99.407735,99.785711 0 0 0 5.661095,167.52079 c 8.922727,-11.09852 17.30932,-19.41566 25.158154,-24.94473 10.428735,-7.47852 21.263068,-11.2174 32.502925,-11.2174 12.74623,0 27.636025,6.41003 44.669626,19.23035 l 2.60707,1.92288 c 0.927,0.64101 2.20181,1.49582 3.82406,2.56418 17.9606,13.24765 32.38678,19.87165 43.27901,19.87165 9.96524,0 19.81458,-4.06008 29.54807,-12.17961 4.02439,-3.3176 8.223,-7.45674 12.59561,-12.41527 A 99.407735,99.785711 0 0 0 104.45713,78.459042 Z"
       id="path47"
       inkscape:connector-curvature="0" />
    <path
       style="fill:#000080;stroke-width:0.26458332"
       d="m 57.971772,179.3717 c -10.196985,0 -20.278397,4.1668 -30.243632,12.50001 -5.483429,4.46781 -11.177717,10.39446 -17.082161,17.77359 a 99.407735,99.785711 0 0 0 92.458431,63.19407 99.407735,99.785711 0 0 0 95.75231,-73.38105 c -4.89142,5.01374 -9.61667,9.10849 -14.17588,12.28452 -10.31286,7.26485 -21.08944,10.89753 -32.32929,10.89753 -12.74625,0 -27.57828,-6.30332 -44.496,-18.90996 -1.27463,-0.85468 -2.20134,-1.49553 -2.78071,-1.92288 -0.81113,-0.64101 -2.08594,-1.49582 -3.82405,-2.56418 C 83.290184,185.99569 68.864006,179.3717 57.971772,179.3717 Z"
       id="path10"
       inkscape:connector-curvature="0" />
    <path
       style="fill:#00b9ff;fill-opacity:1;stroke-width:0.75595242"
       d="m 147.7316,173.07373 c -7.2583,-2.15219 -17.87668,-7.80335 -28.60877,-15.22575 -21.017518,-14.53589 -25.593797,-17.48755 -31.590366,-20.37545 -16.79793,-8.08976 -32.65129,-8.23859 -48.114037,-0.45167 -9.445244,4.75654 -21.816419,15.34835 -30.9317789,26.48279 l -2.4754816,3.02381 0.4861658,-3.02381 C 9.9682748,141.9154 19.283589,123.51729 34.454182,108.28779 53.847651,88.819006 77.144007,79.15443 104.75973,79.121283 c 41.68974,-0.05004 78.6605,26.111797 92.89333,65.734647 l 1.99099,5.54276 -6.26413,6.19401 c -7.39775,7.31494 -15.49602,12.89988 -22.40389,15.45073 -6.7864,2.506 -16.77451,2.94872 -23.24443,1.0303 z"
       id="path49"
       inkscape:connector-curvature="0" />
    <flowRoot
       xml:space="preserve"
       id="flowRoot825"
       style="fill:black;fill-opacity:1;stroke:none;font-family:sans-serif;font-style:normal;font-weight:normal;font-size:40px;line-height:1.25;letter-spacing:0px;word-spacing:0px"><flowRegion
         id="flowRegion827"><rect
           id="rect829"
           width="912.5"
           height="221.875"
           x="-1525"
           y="1119.3947" /></flowRegion><flowPara
         id="flowPara831" /></flowRoot>    <path
       style="fill:none;stroke:#000000;stroke-width:0.26458332px;stroke-linecap:butt;stroke-linejoin:miter;stroke-opacity:1"
       d="m -42.114924,536.34831 5.26427,-6.99126 8.68164,-6.20117 7.85482,-8.26823 9.09505,-4.13412 16.4300099,-4.67882 v 0 l 18.2965601,4.67882 14.4694,8.26823 10.51305,6.9246 17.59893,12.09233 15.70963,8.68164 17.776696,3.30729 9.921868,-1.65364 14.4694,-3.72071 7.85482,-4.54752 7.02799,-7.85482 7.24659,-6.08959"
       id="path875"
       inkscape:connector-curvature="0" />
    <path
       style="fill:none;stroke:none;stroke-width:0.26458332px;stroke-linecap:butt;stroke-linejoin:miter;stroke-opacity:1"
       d="m -276.54044,309.86235 9.35443,-6.43118 8.18513,-5.26186 15.87682,-4.79044 v 0 l 19.20231,6.54439 11.69304,5.26187 12.38367,8.06539 13.92568,11.22813 23.97073,11.10839 15.20096,1.75395 h 9.35443 l 13.447,-5.26186 7.01582,-6.43118 14.69131,-12.18246"
       id="path930"
       inkscape:connector-curvature="0" />
    <text
       xml:space="preserve"
       style="font-style:normal;font-variant:normal;font-weight:normal;font-stretch:normal;font-size:42.33333206px;line-height:1.25;font-family:'Sitka Text';-inkscape-font-specification:'Sitka Text';letter-spacing:0px;word-spacing:0px;fill:#000000;fill-opacity:1;stroke:none;stroke-width:0.26458332"
       id="text944"
       x="85.943855"
       y="31.571213"
       transform="translate(299.34187,-121.60764)"><textPath
         xlink:href="#path930"
         id="textPath946"><tspan
   style="font-style:normal;font-variant:normal;font-weight:normal;font-stretch:normal;font-size:42.33333206px;font-family:'Sitka Text';-inkscape-font-specification:'Sitka Text';stroke-width:0.26458332"
   id="tspan942"><tspan
     style="font-style:normal;font-variant:normal;font-weight:normal;font-stretch:normal;font-size:42.33333206px;font-family:'Sitka Text';-inkscape-font-specification:'Sitka Text';stroke-width:0.26458332"
     id="tspan940"
     y="185.84993"
     x="-148.50177">Collegium</tspan></tspan></textPath></text>
  </g>
</svg>
