<?xml version="1.0" encoding="UTF-8" standalone="no"?>
<!-- Created with Inkscape (http://www.inkscape.org/) -->

<svg
   xmlns:dc="http://purl.org/dc/elements/1.1/"
   xmlns:cc="http://creativecommons.org/ns#"
   xmlns:rdf="http://www.w3.org/1999/02/22-rdf-syntax-ns#"
   xmlns:svg="http://www.w3.org/2000/svg"
   xmlns="http://www.w3.org/2000/svg"
   xmlns:sodipodi="http://sodipodi.sourceforge.net/DTD/sodipodi-0.dtd"
   xmlns:inkscape="http://www.inkscape.org/namespaces/inkscape"
   width="210mm"
   height="297mm"
   viewBox="0 0 210 297"
   version="1.1"
   id="svg8"
   sodipodi:docname="Nowy dokument 1.2018_05_09_12_27_07.0.svg"
   inkscape:version="0.92.3 (2405546, 2018-03-11)">
  <defs
     id="defs2" />
  <sodipodi:namedview
     id="base"
     pagecolor="#ffffff"
     bordercolor="#666666"
     borderopacity="1.0"
     inkscape:pageopacity="0.0"
     inkscape:pageshadow="2"
     inkscape:zoom="0.61580177"
     inkscape:cx="400"
     inkscape:cy="300.17613"
     inkscape:document-units="mm"
     inkscape:current-layer="layer1"
     showgrid="false"
     inkscape:window-width="850"
     inkscape:window-height="722"
     inkscape:window-x="959"
     inkscape:window-y="121"
     inkscape:window-maximized="0" />
  <metadata
     id="metadata5">
    <rdf:RDF>
      <cc:Work
         rdf:about="">
        <dc:format>image/svg+xml</dc:format>
        <dc:type
           rdf:resource="http://purl.org/dc/dcmitype/StillImage" />
      </cc:Work>
    </rdf:RDF>
  </metadata>
  <g
     inkscape:label="Layer 1"
     inkscape:groupmode="layer"
     id="layer1">
    <path
       id="path4518"
       style="fill:none;fill-opacity:1;stroke:#000000;stroke-width:8.63724232;stroke-miterlimit:4;stroke-dasharray:none;stroke-opacity:1"
       sodipodi:type="arc"
       sodipodi:cx="-100.16734"
       sodipodi:cy="127.3524"
       sodipodi:rx="43.599701"
       sodipodi:ry="41.942524"
       sodipodi:start="6.0575603"
       sodipodi:end="5.3740106"
       sodipodi:open="true"
       d="m -57.6727,117.96921 a 43.599701,41.942524 0 0 1 -25.656277,48.07154 43.599701,41.942524 0 0 1 -53.606053,-16.14671 43.599701,41.942524 0 0 1 7.42412,-53.563266 43.599701,41.942524 0 0 1 56.131097,-2.070896"
       transform="scale(-1,1)" />
    <ellipse
       style="fill:none;fill-opacity:1;stroke:#000000;stroke-width:12.11108112;stroke-miterlimit:4;stroke-dasharray:none;stroke-opacity:1;paint-order:normal"
       id="path8074"
       ry="49.103966"
       rx="88.813698"
       cy="-128.91464"
       cx="103.31217"
       transform="scale(1,-1)" />
    <path
       style="fill:#000000;fill-opacity:1;stroke:#000000;stroke-width:12.2670002;stroke-miterlimit:4;stroke-dasharray:none;stroke-opacity:1;paint-order:normal"
       id="path8093"
       sodipodi:type="arc"
       sodipodi:cx="101.27155"
       sodipodi:cy="-127.79051"
       sodipodi:rx="24.177443"
       sodipodi:ry="22.808907"
       sodipodi:start="3.0962528"
       sodipodi:end="2.0757773"
       d="m 77.118957,-126.75671 a 24.177443,22.808907 0 0 1 16.997078,-22.82089 24.177443,22.808907 0 0 1 27.696575,9.75689 24.177443,22.808907 0 0 1 -3.01804,27.74539 24.177443,22.808907 0 0 1 -29.219841,4.24679 l 11.696821,-19.96198 z"
       transform="scale(1,-1)" />
    <path
       style="fill:none;fill-opacity:1;stroke:#000000;stroke-width:25.95401573;stroke-miterlimit:4;stroke-dasharray:none;stroke-opacity:1;paint-order:normal"
       d="M 373.27539 801.83008 A 331.89654 131.89655 0 0 0 365.91211 801.93359 L 378.48633 801.93359 A 331.89654 131.89655 0 0 0 373.27539 801.83008 z M 47.384766 958.22461 A 331.89654 131.89655 0 0 0 373.27539 1065.623 A 331.89654 131.89655 0 0 0 699.20508 958.22461 L 47.384766 958.22461 z "
       transform="scale(0.26458333)"
       id="path8110" />
    <path
       inkscape:connector-curvature="0"
       style="fill:none;fill-opacity:1;stroke:#000000;stroke-width:6.8670001;stroke-miterlimit:4;stroke-dasharray:none;stroke-opacity:1;paint-order:normal"
       d="m 98.762436,294.90965 a 87.814293,34.897629 0 0 1 -1.948201,-0.0274 h 3.326925 a 87.814293,34.897629 0 0 1 -1.378724,0.0274 z M 12.537209,253.53026 a 87.814293,34.897629 0 0 1 86.225227,-28.41582 87.814293,34.897629 0 0 1 86.235574,28.41582 z"
       id="path8110-6" />
    <ellipse
       style="fill:#f9f9f9;stroke-width:0.27927178"
       id="path139"
       cx="98.859612"
       cy="252.92297"
       rx="81.166519"
       ry="16.578991" />
    <g
       id="g150">
      <ellipse
         ry="9.452446"
         rx="11.385901"
         cy="209.77969"
         cx="97.31723"
         id="path145"
         style="fill:#f9f9f9;stroke-width:0.26458332" />
    </g>
    <ellipse
       style="fill:#f9f9f9"
       id="path147"
       cx="0"
       cy="0"
       transform="scale(0.26458333)"
       r="0" />
    <ellipse
       style="fill:#f9f9f9;stroke-width:0.26458332"
       id="path155"
       cx="98.39138"
       cy="296.14069"
       rx="17.186268"
       ry="1.2889699" />
    <ellipse
       style="fill:#f9f9f9;stroke-width:0.26458332"
       id="path162"
       cx="98.606209"
       cy="291.6293"
       rx="13.104528"
       ry="1.0741417" />
    <ellipse
       style="fill:#f9f9f9;stroke-width:0.26458332"
       id="path167"
       cx="112.14038"
       cy="292.91827"
       rx="43.824978"
       ry="2.3631115" />
    <ellipse
       style="fill:#f9f9f9;stroke-width:0.26458332"
       id="path169"
       cx="189.60141"
       cy="250.34503"
       rx="4.6034007"
       ry="3.1852157" />
  </g>
</svg>
