<?xml version="1.0" encoding="UTF-8" standalone="no"?>
<!-- Created with Inkscape (http://www.inkscape.org/) -->

<svg
   xmlns:dc="http://purl.org/dc/elements/1.1/"
   xmlns:cc="http://creativecommons.org/ns#"
   xmlns:rdf="http://www.w3.org/1999/02/22-rdf-syntax-ns#"
   xmlns:svg="http://www.w3.org/2000/svg"
   xmlns="http://www.w3.org/2000/svg"
   xmlns:sodipodi="http://sodipodi.sourceforge.net/DTD/sodipodi-0.dtd"
   xmlns:inkscape="http://www.inkscape.org/namespaces/inkscape"
   width="210mm"
   height="297mm"
   viewBox="0 0 210 297"
   version="1.1"
   id="svg8"
   sodipodi:docname="Nowy dokument 1.2018_05_09_12_47_21.0.svg"
   inkscape:version="0.92.3 (2405546, 2018-03-11)">
  <defs
     id="defs2" />
  <sodipodi:namedview
     id="base"
     pagecolor="#ffffff"
     bordercolor="#666666"
     borderopacity="1.0"
     inkscape:pageopacity="0.0"
     inkscape:pageshadow="2"
     inkscape:zoom="0.51"
     inkscape:cx="46.078431"
     inkscape:cy="757.98692"
     inkscape:document-units="mm"
     inkscape:current-layer="layer1"
     showgrid="false"
     inkscape:window-width="1920"
     inkscape:window-height="1000"
     inkscape:window-x="0"
     inkscape:window-y="0"
     inkscape:window-maximized="1" />
  <metadata
     id="metadata5">
    <rdf:RDF>
      <cc:Work
         rdf:about="">
        <dc:format>image/svg+xml</dc:format>
        <dc:type
           rdf:resource="http://purl.org/dc/dcmitype/StillImage" />
      </cc:Work>
    </rdf:RDF>
  </metadata>
  <g
     inkscape:label="Layer 1"
     inkscape:groupmode="layer"
     id="layer1">
    <flowRoot
       xml:space="preserve"
       id="flowRoot259"
       style="font-style:normal;font-weight:normal;font-size:40px;line-height:1.25;font-family:sans-serif;letter-spacing:0px;word-spacing:0px;fill:#000000;fill-opacity:1;stroke:none"
       transform="scale(0.26458333)"><flowRegion
         id="flowRegion261"><rect
           id="rect263"
           width="654.28571"
           height="117.14286"
           x="57.142857"
           y="516.80542" /></flowRegion><flowPara
         id="flowPara267" /></flowRoot>    <flowRoot
       xml:space="preserve"
       id="flowRoot271"
       style="font-style:normal;font-weight:normal;font-size:40px;line-height:50;font-family:sans-serif;letter-spacing:0px;word-spacing:0px;fill:#000000;fill-opacity:1;stroke:none"
       transform="scale(0.26458333)"><flowRegion
         id="flowRegion273"
         style="line-height:50"><rect
           id="rect275"
           width="911.42859"
           height="222.85715"
           x="85.714287"
           y="908.23395"
           style="line-height:50" /></flowRegion><flowPara
         id="flowPara277">~~`</flowPara></flowRoot>    <flowRoot
       xml:space="preserve"
       id="flowRoot279"
       style="font-style:normal;font-weight:normal;font-size:40px;line-height:60;font-family:sans-serif;letter-spacing:0px;word-spacing:0px;fill:#000000;fill-opacity:1;stroke:none;"
       transform="scale(0.26458333)"><flowRegion
         id="flowRegion281"
         style="line-height:60;"><rect
           id="rect283"
           width="195.54164"
           height="90.074577"
           x="109.45772"
           y="872.24921"
           style="line-height:60;" /></flowRegion><flowPara
         id="flowPara285">~</flowPara></flowRoot>    <flowRoot
       xml:space="preserve"
       id="flowRoot287"
       style="font-style:normal;font-weight:normal;font-size:40px;line-height:150;font-family:sans-serif;letter-spacing:0px;word-spacing:0px;fill:#000000;fill-opacity:1;stroke:none"
       transform="scale(0.26458333)"><flowRegion
         id="flowRegion289"
         style="line-height:150"><rect
           id="rect291"
           width="688.6189"
           height="82.147469"
           x="58.821644"
           y="415.64578"
           style="line-height:150" /></flowRegion><flowPara
         id="flowPara293">~``</flowPara></flowRoot>    <flowRoot
       xml:space="preserve"
       id="flowRoot295"
       style="fill:black;fill-opacity:1;stroke:none;font-family:sans-serif;font-style:normal;font-weight:normal;font-size:40px;line-height:1.25;letter-spacing:0px;word-spacing:0px"><flowRegion
         id="flowRegion297"><rect
           id="rect299"
           width="182.54993"
           height="113.58662"
           x="269.76825"
           y="383.19244" /></flowRegion><flowPara
         id="flowPara301" /></flowRoot>    <flowRoot
       xml:space="preserve"
       id="flowRoot303"
       style="font-style:normal;font-weight:normal;font-size:40px;line-height:36.65;font-family:sans-serif;letter-spacing:0px;word-spacing:0px;fill:#000000;fill-opacity:1;stroke:none;"
       transform="scale(0.26458333)"><flowRegion
         id="flowRegion305"
         style="line-height:36.65;"><rect
           id="rect307"
           width="171.3941"
           height="80.119141"
           x="208.91826"
           y="352.76746"
           style="line-height:36.65;" /></flowRegion><flowPara
         id="flowPara309">~</flowPara></flowRoot>    <g
       aria-label="~"
       transform="matrix(0.95017751,0,0,1.1338949,-13.061474,-20.453307)"
       style="font-style:normal;font-weight:normal;font-size:348.58908081px;line-height:1.25;font-family:sans-serif;letter-spacing:0px;word-spacing:0px;fill:#ffffff;fill-opacity:1;stroke:none;stroke-width:8.71472645"
       id="text313">
      <path
         d="m 220.93486,80.2679 v 30.29729 q -17.872,13.44655 -33.19086,19.23368 -15.14864,5.78712 -31.65897,5.78712 -18.72304,0 -43.57363,-10.04236 -1.87231,-0.68084 -2.72335,-1.02126 -1.19147,-0.51063 -3.74461,-1.36167 -26.382478,-10.55299 -42.382172,-10.55299 -14.978437,0 -29.616455,6.63817 -14.638018,6.46796 -31.3185507,20.59535 V 109.54394 Q 20.598261,96.097384 35.746908,90.310261 q 15.318856,-5.957333 31.829178,-5.957333 18.723047,0 43.743844,10.212571 1.7021,0.680838 2.55314,1.021257 1.36168,0.510628 3.74461,1.361676 26.38248,10.552988 42.38217,10.552988 14.63802,0 28.93562,-6.46796 14.46781,-6.467961 31.99939,-20.76556 z"
         style="fill:#ffffff;stroke-width:8.71472645"
         id="path382"
         inkscape:connector-curvature="0" />
    </g>
    <g
       aria-label="~"
       transform="matrix(0.90344884,0,0,1.1068696,-2.2871991,117.49267)"
       style="font-style:normal;font-weight:normal;font-size:348.58908081px;line-height:1.25;font-family:sans-serif;letter-spacing:0px;word-spacing:0px;fill:#000080;fill-opacity:1;stroke:none;stroke-width:8.71472645"
       id="text313-6">
      <path
         inkscape:connector-curvature="0"
         d="m 220.93486,80.2679 v 30.29729 q -17.872,13.44655 -33.19086,19.23368 -15.14864,5.78712 -31.65897,5.78712 -18.72304,0 -43.57363,-10.04236 -1.87231,-0.68084 -2.72335,-1.02126 -1.19147,-0.51063 -3.74461,-1.36167 -26.382478,-10.55299 -42.382172,-10.55299 -14.978437,0 -29.616455,6.63817 -14.638018,6.46796 -31.3185507,20.59535 V 109.54394 Q 20.598261,96.097384 35.746908,90.310261 q 15.318856,-5.957333 31.829178,-5.957333 18.723047,0 43.743844,10.212571 1.7021,0.680838 2.55314,1.021257 1.36168,0.510628 3.74461,1.361676 26.38248,10.552988 42.38217,10.552988 14.63802,0 28.93562,-6.46796 14.46781,-6.467961 31.99939,-20.76556 z"
         style="fill:#000080;stroke-width:8.71472645"
         id="path382-7" />
    </g>
    <path
       style="fill:#000080;stroke-width:1.96078432"
       d="M 333.52941,778.73537 C 192.36428,759.66976 73.899157,663.77886 27.970032,531.40211 21.728428,513.41258 11.988781,475.95758 13.322183,475.07202 c 0.329662,-0.21894 4.569974,-3.54262 9.422915,-7.38596 36.532222,-28.9321 83.580612,-51.55887 121.508382,-58.43649 18.33498,-3.32477 51.3731,-2.91487 71.62887,0.88869 26.32269,4.94278 63.81575,18.17619 108.82353,38.40992 101.88785,45.80481 134.56053,55.40974 188.2353,55.33637 72.18627,-0.0987 135.18115,-26.48021 209.77517,-87.85148 11.7514,-9.66831 21.79753,-19.34344 22.32477,-21.50031 0.52721,-2.15686 0.65968,14.16667 0.29435,36.27451 -0.56135,33.96941 -1.44243,43.86207 -5.6878,63.86176 -26.85443,126.50926 -115.95345,226.72446 -237.77408,267.4393 -54.80802,18.3179 -113.15541,24.08077 -168.34418,16.62704 z"
       id="path53"
       inkscape:connector-curvature="0"
       transform="scale(0.26458333)" />
    <path
       style="fill:#0000ff;stroke-width:0.51879084"
       d="m 129.91004,107.286 c -7.72151,-1.6694 -13.99422,-4.09079 -40.059182,-15.463586 -8.041606,-3.508759 -14.054876,-5.661726 -20.898744,-7.482496 -4.880737,-1.298496 -5.848324,-1.378074 -16.34191,-1.34402 -10.364592,0.03362 -11.508362,0.132707 -16.160914,1.399911 -8.703218,2.370462 -17.653313,6.359757 -25.394173,11.318843 -2.1685206,1.389234 -4.0945306,2.525879 -4.2800306,2.525879 -0.73846,0 -0.24149,-2.415868 1.79211,-8.711838 C 16.180717,65.957398 31.121561,47.400728 52.021712,35.557761 68.794324,26.053645 87.620669,21.776993 107.01235,23.065915 c 21.46218,1.426543 42.47652,10.064799 58.15609,23.905928 10.30178,9.093891 19.65717,21.109726 24.6623,31.675655 l 2.39142,5.048347 -1.92319,1.695342 c -7.08872,6.248871 -17.54901,13.554977 -23.96577,16.739153 -5.14366,2.55243 -11.51323,4.728 -15.98799,5.4608 -4.43618,0.72648 -16.49657,0.5464 -20.43517,-0.30514 z"
       id="path59"
       inkscape:connector-curvature="0" />
    <flowRoot
       xml:space="preserve"
       id="flowRoot88"
       style="fill:black;fill-opacity:1;stroke:none;font-family:sans-serif;font-style:normal;font-weight:normal;font-size:40px;line-height:1.25;letter-spacing:0px;word-spacing:0px"><flowRegion
         id="flowRegion90"><rect
           id="rect92"
           width="568.62744"
           height="64.705879"
           x="82.352943"
           y="361.73538" /></flowRegion><flowPara
         id="flowPara94"></flowPara></flowRoot>    <flowRoot
       xml:space="preserve"
       id="flowRoot121"
       style="font-style:normal;font-weight:normal;font-size:40px;line-height:1.25;font-family:sans-serif;letter-spacing:0px;word-spacing:0px;fill:#000000;fill-opacity:1;stroke:none"
       transform="scale(0.26458333)"><flowRegion
         id="flowRegion123"><rect
           id="rect125"
           width="790.19611"
           height="84.313728"
           x="43.137257"
           y="373.50009" /></flowRegion><flowPara
         id="flowPara127">MOJE PIĘKNE LO</flowPara></flowRoot>  </g>
  <g
     inkscape:groupmode="layer"
     id="layer2"
     inkscape:label="Layer 2" />
</svg>
