<?xml version="1.0" encoding="UTF-8" standalone="no"?>
<!-- Created with Inkscape (http://www.inkscape.org/) -->

<svg
   xmlns:dc="http://purl.org/dc/elements/1.1/"
   xmlns:cc="http://creativecommons.org/ns#"
   xmlns:rdf="http://www.w3.org/1999/02/22-rdf-syntax-ns#"
   xmlns:svg="http://www.w3.org/2000/svg"
   xmlns="http://www.w3.org/2000/svg"
   xmlns:sodipodi="http://sodipodi.sourceforge.net/DTD/sodipodi-0.dtd"
   xmlns:inkscape="http://www.inkscape.org/namespaces/inkscape"
   width="210mm"
   height="297mm"
   viewBox="0 0 210 297"
   version="1.1"
   id="svg8"
   inkscape:version="0.92.3 (2405546, 2018-03-11)"
   sodipodi:docname="gawel_oko.svg">
  <defs
     id="defs2" />
  <sodipodi:namedview
     id="base"
     pagecolor="#ffffff"
     bordercolor="#666666"
     borderopacity="1.0"
     inkscape:pageopacity="0.0"
     inkscape:pageshadow="2"
     inkscape:zoom="0.35"
     inkscape:cx="384.85404"
     inkscape:cy="560"
     inkscape:document-units="mm"
     inkscape:current-layer="layer1"
     showgrid="false"
     inkscape:window-width="1853"
     inkscape:window-height="1021"
     inkscape:window-x="67"
     inkscape:window-y="27"
     inkscape:window-maximized="1" />
  <metadata
     id="metadata5">
    <rdf:RDF>
      <cc:Work
         rdf:about="">
        <dc:format>image/svg+xml</dc:format>
        <dc:type
           rdf:resource="http://purl.org/dc/dcmitype/StillImage" />
        <dc:title></dc:title>
      </cc:Work>
    </rdf:RDF>
  </metadata>
  <g
     inkscape:label="Layer 1"
     inkscape:groupmode="layer"
     id="layer1">
    <path
       style="opacity:1;fill:#e9e9e9;fill-opacity:1;stroke:#000000;stroke-width:11.39785767;stroke-linejoin:round;stroke-miterlimit:4;stroke-dasharray:none;stroke-opacity:1"
       d="M 108.5668,93.641209 A 91.692467,73.136855 0 0 0 20.664888,146.11723 91.692476,73.136855 0 0 0 108.10855,197.51197 91.692476,73.136855 0 0 0 196.01046,145.03595 91.692467,73.136855 0 0 0 108.5668,93.641209 Z"
       id="path819"
       inkscape:connector-curvature="0" />
    <path
       style="opacity:1;fill:#080808;fill-opacity:1;stroke:#000000;stroke-width:9.05756283;stroke-linejoin:round;stroke-miterlimit:4;stroke-dasharray:none;stroke-opacity:1"
       id="path871"
       sodipodi:type="arc"
       sodipodi:cx="107.59813"
       sodipodi:cy="145.8098"
       sodipodi:rx="30.350601"
       sodipodi:ry="32.318516"
       sodipodi:start="4.3165373"
       sodipodi:end="3.366994"
       d="m 95.895115,115.99052 a 30.350601,32.318516 0 0 1 36.169115,10.69455 30.350601,32.318516 0 0 1 -1.25606,39.94916 30.350601,32.318516 0 0 1 -36.759879,8.09455 30.350601,32.318516 0 0 1 -16.033029,-36.14209 l 29.582868,7.22311 z" />
    <path
       style="opacity:1;fill:none;fill-opacity:1;stroke:#000000;stroke-width:12.032;stroke-linejoin:round;stroke-miterlimit:4;stroke-dasharray:none;stroke-opacity:1"
       id="path873"
       sodipodi:type="arc"
       sodipodi:cx="106.52853"
       sodipodi:cy="144.88254"
       sodipodi:rx="49.436371"
       sodipodi:ry="50.573322"
       sodipodi:start="4.2791083"
       sodipodi:end="3.467807"
       d="m 85.772637,98.982532 a 49.436371,50.573322 0 0 1 60.523253,15.856038 49.436371,50.573322 0 0 1 -2.99019,63.84001 49.436371,50.573322 0 0 1 -61.727934,9.86351 49.436371,50.573322 0 0 1 -21.878449,-59.86624"
       sodipodi:open="true" />
  </g>
</svg>
