<?xml version="1.0" encoding="UTF-8" standalone="no"?>
<!-- Created with Inkscape (http://www.inkscape.org/) -->

<svg
   xmlns:dc="http://purl.org/dc/elements/1.1/"
   xmlns:cc="http://creativecommons.org/ns#"
   xmlns:rdf="http://www.w3.org/1999/02/22-rdf-syntax-ns#"
   xmlns:svg="http://www.w3.org/2000/svg"
   xmlns="http://www.w3.org/2000/svg"
   xmlns:sodipodi="http://sodipodi.sourceforge.net/DTD/sodipodi-0.dtd"
   xmlns:inkscape="http://www.inkscape.org/namespaces/inkscape"
   width="210mm"
   height="297mm"
   viewBox="0 0 210 297"
   version="1.1"
   id="svg8"
   inkscape:version="0.92.3 (2405546, 2018-03-11)"
   sodipodi:docname="Sado_naklejka.svg">
  <defs
     id="defs2">
    <filter
       inkscape:collect="always"
       style="color-interpolation-filters:sRGB"
       id="filter1146"
       x="-0.20417513"
       width="1.4083503"
       y="-0.25811956"
       height="1.5162391">
      <feGaussianBlur
         inkscape:collect="always"
         stdDeviation="49.259077"
         id="feGaussianBlur1148" />
    </filter>
    <filter
       inkscape:collect="always"
       style="color-interpolation-filters:sRGB"
       id="filter2532"
       x="-0.37839168"
       width="1.7567834"
       y="-0.32212736"
       height="1.6442547">
      <feGaussianBlur
         inkscape:collect="always"
         stdDeviation="10.446444"
         id="feGaussianBlur2534" />
    </filter>
    <clipPath
       clipPathUnits="userSpaceOnUse"
       id="clipPath2538">
      <path
         id="path2540"
         d="m 349.34961,186.44531 c -63.01401,74.45907 -112.78416,133.14116 -149.38086,176.16602 -38.13626,44.83484 -63.86528,74.92775 -81.2207,95.125 -11.10429,12.92253 -14.51672,16.78303 -19.822269,22.87305 a 302.3622,302.3622 0 0 0 -0.185547,3.71874 302.3622,302.3622 0 0 0 302.363286,302.36133 302.3622,302.3622 0 0 0 302.36132,-302.36133 302.3622,302.3622 0 0 0 -302.36132,-302.36328 302.3622,302.3622 0 0 0 -51.75391,4.48047 z"
         style="fill:#00ffff;fill-opacity:1;stroke:#ffffff;stroke-width:0.5;stroke-miterlimit:4;stroke-dasharray:none;stroke-opacity:1"
         inkscape:connector-curvature="0" />
    </clipPath>
    <clipPath
       clipPathUnits="userSpaceOnUse"
       id="clipPath2542">
      <path
         id="path2544"
         d="M 92.432084,49.330322 C 75.759627,69.030951 62.591275,84.557254 52.908398,95.940914 42.81818,107.80346 36.01071,115.76555 31.418755,121.1094 c -2.93801,3.41909 -3.840882,4.44051 -5.244642,6.05183 a 79.999999,79.999999 0 0 0 -0.04909,0.98392 79.999999,79.999999 0 0 0 80.000277,79.99976 79.999999,79.999999 0 0 0 79.99977,-79.99976 79.999999,79.999999 0 0 0 -79.99977,-80.000286 79.999999,79.999999 0 0 0 -13.693213,1.185458 z"
         style="fill:#00ffff;fill-opacity:1;stroke:#ffffff;stroke-width:0.5;stroke-miterlimit:4;stroke-dasharray:none;stroke-opacity:1"
         inkscape:connector-curvature="0" />
    </clipPath>
    <clipPath
       clipPathUnits="userSpaceOnUse"
       id="clipPath2546">
      <path
         id="path2548"
         d="M 92.432084,49.330322 C 75.759627,69.030951 62.591275,84.557254 52.908398,95.940914 42.81818,107.80346 36.01071,115.76555 31.418755,121.1094 c -2.93801,3.41909 -3.840882,4.44051 -5.244642,6.05183 a 79.999999,79.999999 0 0 0 -0.04909,0.98392 79.999999,79.999999 0 0 0 80.000277,79.99976 79.999999,79.999999 0 0 0 79.99977,-79.99976 79.999999,79.999999 0 0 0 -79.99977,-80.000286 79.999999,79.999999 0 0 0 -13.693213,1.185458 z"
         style="fill:#00ffff;fill-opacity:1;stroke:#ffffff;stroke-width:0.5;stroke-miterlimit:4;stroke-dasharray:none;stroke-opacity:1"
         inkscape:connector-curvature="0" />
    </clipPath>
    <clipPath
       clipPathUnits="userSpaceOnUse"
       id="clipPath2550">
      <path
         id="path2552"
         d="m 349.34961,186.44531 c -63.01401,74.45907 -112.78416,133.14116 -149.38086,176.16602 -38.13626,44.83484 -63.86528,74.92775 -81.2207,95.125 -11.10429,12.92253 -14.51672,16.78303 -19.822269,22.87305 a 302.3622,302.3622 0 0 0 -0.185547,3.71874 302.3622,302.3622 0 0 0 302.363286,302.36133 302.3622,302.3622 0 0 0 302.36132,-302.36133 302.3622,302.3622 0 0 0 -302.36132,-302.36328 302.3622,302.3622 0 0 0 -51.75391,4.48047 z"
         style="fill:#00ffff;fill-opacity:1;stroke:#ffffff;stroke-width:0.5;stroke-miterlimit:4;stroke-dasharray:none;stroke-opacity:1"
         inkscape:connector-curvature="0" />
    </clipPath>
  </defs>
  <sodipodi:namedview
     id="base"
     pagecolor="#ffffff"
     bordercolor="#666666"
     borderopacity="1.0"
     inkscape:pageopacity="0.0"
     inkscape:pageshadow="2"
     inkscape:zoom="0.61580177"
     inkscape:cx="189.46365"
     inkscape:cy="525.12855"
     inkscape:document-units="mm"
     inkscape:current-layer="svg8"
     showgrid="false"
     inkscape:window-width="1920"
     inkscape:window-height="1000"
     inkscape:window-x="0"
     inkscape:window-y="0"
     inkscape:window-maximized="1" />
  <metadata
     id="metadata5">
    <rdf:RDF>
      <cc:Work
         rdf:about="">
        <dc:format>image/svg+xml</dc:format>
        <dc:type
           rdf:resource="http://purl.org/dc/dcmitype/StillImage" />
        <dc:title></dc:title>
      </cc:Work>
    </rdf:RDF>
  </metadata>
  <g
     inkscape:label="Layer 1"
     inkscape:groupmode="layer"
     id="layer1">
    <path
       style="fill:#00ffff;fill-opacity:1;stroke:#ffffff;stroke-width:1.88976383;stroke-miterlimit:4;stroke-dasharray:none;stroke-opacity:1"
       d="m 349.34961,186.44531 c -63.01401,74.45907 -112.78416,133.14116 -149.38086,176.16602 -38.13626,44.83484 -63.86528,74.92775 -81.2207,95.125 -11.10429,12.92253 -14.51672,16.78303 -19.822269,22.87305 a 302.3622,302.3622 0 0 0 -0.185547,3.71874 302.3622,302.3622 0 0 0 302.363286,302.36133 302.3622,302.3622 0 0 0 302.36132,-302.36133 302.3622,302.3622 0 0 0 -302.36132,-302.36328 302.3622,302.3622 0 0 0 -51.75391,4.48047 z"
       id="path834"
       transform="matrix(0.26458333,0,0,0.26458333,0.37777285,0.31247302)"
       clip-path="url(#clipPath2550)"
       inkscape:connector-curvature="0" />
    <path
       style="opacity:0.41000001;fill:#241c1c;fill-opacity:1;stroke:#ffffff;stroke-width:0.5;stroke-miterlimit:4;stroke-dasharray:none;stroke-opacity:1;filter:url(#filter2532)"
       d="m 26.551886,127.4737 a 79.999998,79.999998 0 0 0 66.25797,-77.830906 c -1.403759,1.61131 -2.306631,2.63274 -5.244642,6.05182 C 82.97326,61.038474 76.16579,69.000554 66.075571,80.863112 56.392694,92.246773 43.224342,107.77307 26.551886,127.4737 Z"
       id="path839"
       inkscape:connector-curvature="0"
       clip-path="url(#clipPath2546)" />
    <path
       style="opacity:0.43500001;fill:#280b0b;fill-opacity:1;stroke:#ffffff;stroke-width:1.88976383;stroke-miterlimit:4;stroke-dasharray:none;stroke-opacity:1;filter:url(#filter1146)"
       d="M 659.89648,328.67773 A 302.3622,302.3622 0 0 1 685.60156,450.22656 302.3622,302.3622 0 0 1 383.24023,752.58789 302.3622,302.3622 0 0 1 124.44336,605.87109 302.3622,302.3622 0 0 0 401.10352,786.68945 302.3622,302.3622 0 0 0 703.46484,484.32812 302.3622,302.3622 0 0 0 659.89648,328.67773 Z"
       transform="scale(0.26458333)"
       id="path841"
       clip-path="url(#clipPath2538)"
       inkscape:connector-curvature="0" />
  </g>
  <flowRoot
     xml:space="preserve"
     id="flowRoot6295"
     style="font-style:normal;font-weight:normal;font-size:40px;line-height:1.25;font-family:sans-serif;letter-spacing:0px;word-spacing:0px;fill:#000000;fill-opacity:1;stroke:none;stroke-width:0.22442885"
     transform="matrix(1.2060899,0.47999464,-0.54059397,0.937216,-96.226064,-26.388679)"><flowRegion
       id="flowRegion6297"
       style="stroke-width:0.22442885"><rect
         id="rect6299"
         width="129.91193"
         height="126.66416"
         x="157.51822"
         y="13.396537"
         ry="0"
         style="stroke-width:0.22442885" /></flowRegion><flowPara
       id="flowPara6301"
       style="stroke-width:0.22442885">STI</flowPara><flowPara
       id="flowPara6303"
       style="stroke-width:0.22442885">CKY</flowPara></flowRoot>  <path
     inkscape:connector-curvature="0"
     id="path1150"
     d="M 26.174116,127.16123 A 79.999998,79.999998 0 0 0 92.432083,49.330321 c -1.40376,1.61131 -2.30663,2.63274 -5.244639,6.05182 C 82.59549,60.726001 75.78802,68.688081 65.697801,80.550644 56.014924,91.934304 42.846572,107.4606 26.174116,127.16123 Z"
     style="fill:#00ffff;fill-opacity:1;stroke:#ffffff;stroke-width:0.5;stroke-miterlimit:4;stroke-dasharray:none;stroke-opacity:1"
     clip-path="url(#clipPath2542)" />
  <flowRoot
     xml:space="preserve"
     id="flowRoot6320"
     style="fill:black;fill-opacity:1;stroke:none;font-family:sans-serif;font-style:normal;font-weight:normal;font-size:40px;line-height:1.25;letter-spacing:0px;word-spacing:0px"><flowRegion
       id="flowRegion6322"><rect
         id="rect6324"
         width="717.76343"
         height="769.72821"
         x="34.101883"
         y="143.30847" /></flowRegion><flowPara
       id="flowPara6326"></flowPara></flowRoot></svg>
